<svg width="56" height="56" viewBox="0 0 56 56" fill="none" xmlns="http://www.w3.org/2000/svg">
<path d="M32.2 29.9602C31.5177 29.4091 30.6533 29.1343 29.778 29.1902H23.8V35.3082H29.876C30.7243 35.3331 31.5518 35.0439 32.2 34.4962C32.5072 34.2003 32.7484 33.8428 32.9077 33.4471C33.0669 33.0513 33.1406 32.6264 33.124 32.2002C33.1389 31.7825 33.0642 31.3664 32.9048 30.9801C32.7454 30.5937 32.5051 30.2459 32.2 29.9602ZM31.36 26.0122C31.6423 25.7607 31.8643 25.4489 32.0098 25.0999C32.1552 24.7509 32.2202 24.3737 32.2 23.9962C32.2412 23.6151 32.1959 23.2296 32.0674 22.8684C31.939 22.5072 31.7306 22.1797 31.458 21.9102C30.859 21.4843 30.1341 21.2723 29.4 21.3082H23.8V26.7122H29.4C30.134 26.7266 30.8489 26.4783 31.416 26.0122H31.36ZM39.2 11.2002H16.8C15.3148 11.2002 13.8904 11.7902 12.8402 12.8404C11.79 13.8906 11.2 15.315 11.2 16.8002V39.2002C11.2 40.6854 11.79 42.1098 12.8402 43.16C13.8904 44.2102 15.3148 44.8002 16.8 44.8002H39.2C40.6852 44.8002 42.1096 44.2102 43.1598 43.16C44.21 42.1098 44.8 40.6854 44.8 39.2002V16.8002C44.8 15.315 44.21 13.8906 43.1598 12.8404C42.1096 11.7902 40.6852 11.2002 39.2 11.2002ZM36.134 34.7902C35.8635 35.4713 35.4195 36.0698 34.846 36.5262C34.1796 37.0567 33.413 37.4471 32.592 37.6742C31.5335 37.986 30.4332 38.1324 29.33 38.1082H20.328V18.5082H29.848C31.3427 18.4337 32.8198 18.8572 34.048 19.7122C34.5913 20.1454 35.0206 20.7047 35.2987 21.3415C35.5768 21.9782 35.6954 22.6732 35.644 23.3662C35.6958 24.2571 35.4709 25.1422 35 25.9002C34.4794 26.6323 33.7605 27.2006 32.928 27.5382C33.4843 27.6243 34.018 27.8195 34.4985 28.1126C34.9791 28.4058 35.3969 28.791 35.728 29.2462C36.3778 30.2331 36.7055 31.3972 36.666 32.5782C36.6451 33.3446 36.4639 34.0981 36.134 34.7902Z" fill="#152EE0"/>
</svg>
