<svg width="38" height="38" viewBox="0 0 38 38" fill="none" xmlns="http://www.w3.org/2000/svg">
<path d="M19 15.6131C18.5552 15.6131 18.1148 15.7007 17.7039 15.8709C17.293 16.0411 16.9197 16.2905 16.6052 16.605C16.2907 16.9195 16.0413 17.2929 15.8711 17.7038C15.7009 18.1147 15.6133 18.5551 15.6133 18.9998C15.6133 19.4446 15.7009 19.885 15.8711 20.2959C16.0413 20.7068 16.2907 21.0801 16.6052 21.3946C16.9197 21.7091 17.293 21.9586 17.7039 22.1288C18.1148 22.299 18.5552 22.3866 19 22.3866C19.4448 22.3866 19.8852 22.299 20.2961 22.1288C20.707 21.9586 21.0803 21.7091 21.3948 21.3946C21.7093 21.0801 21.9587 20.7068 22.129 20.2959C22.2991 19.885 22.3868 19.4446 22.3868 18.9998C22.3868 18.5551 22.2991 18.1147 22.129 17.7038C21.9587 17.2929 21.7093 16.9195 21.3948 16.605C21.0803 16.2905 20.707 16.0411 20.2961 15.8709C19.8852 15.7007 19.4448 15.6131 19 15.6131ZM9.51267 25.7369L8.76533 25.5469C3.19517 24.1393 0 21.7501 0 18.9935C0 16.2369 3.19517 13.8477 8.76533 12.4401L9.51267 12.2517L9.72325 12.9927C10.2875 14.9365 11.0093 16.8312 11.8813 18.6578L12.0413 18.9951L11.8813 19.3323C11.0078 21.1583 10.286 23.0531 9.72325 24.9975L9.51267 25.7369ZM8.41858 14.1707C4.18475 15.3597 1.5865 17.179 1.5865 18.9935C1.5865 20.8064 4.18475 22.6257 8.41858 23.8163C8.93637 22.1695 9.56155 20.5585 10.2901 18.9935C9.56071 17.4289 8.93552 15.8177 8.41858 14.1707ZM28.4873 25.7369L28.2767 24.9943C27.713 23.0505 26.9907 21.1563 26.1171 19.3307L25.9572 18.9935L26.1171 18.6562C26.9904 16.83 27.7127 14.9352 28.2767 12.9911L28.4873 12.2501L29.2363 12.4385C34.8048 13.8461 38 16.2353 38 18.9935C38 21.7517 34.8048 24.1393 29.2363 25.5469L28.4873 25.7369ZM27.7099 18.9935C28.4699 20.6386 29.0985 22.2552 29.5814 23.8163C33.8168 22.6257 36.4135 20.8064 36.4135 18.9935C36.4135 17.179 33.8153 15.3613 29.5814 14.1707C29.0643 15.8177 28.4391 17.4288 27.7099 18.9935ZM8.4075 14.1627L8.19692 13.4233C6.631 7.90382 7.106 3.94866 9.5 2.56799C11.8481 1.21265 15.618 2.8134 19.5684 6.86832L20.1068 7.42091L19.5684 7.97349C18.1647 9.4327 16.8822 11.0038 15.7336 12.6712L15.5198 12.9768L15.1478 13.0085C13.1273 13.1678 11.1231 13.4908 9.15483 13.9743L8.4075 14.1627ZM11.4095 3.66524C10.9852 3.66524 10.6099 3.75707 10.2933 3.93916C8.71942 4.84641 8.44075 8.00041 9.52533 12.2564C11.2126 11.881 12.9225 11.6161 14.6442 11.4632C15.6377 10.0506 16.723 8.70506 17.8932 7.43516C15.4233 5.03007 13.0847 3.66524 11.4095 3.66524ZM26.5921 35.9051C26.5905 35.9051 26.5905 35.9051 26.5921 35.9051C24.3358 35.9051 21.4383 34.2062 18.4316 31.1187L17.8932 30.5661L18.4316 30.0135C19.8349 28.5538 21.1169 26.9822 22.2648 25.3142L22.4786 25.0086L22.8491 24.9769C24.8706 24.8185 26.8759 24.496 28.8452 24.0127L29.5925 23.8242L29.8047 24.5652C31.3674 30.0816 30.894 34.0383 28.5 35.4174C27.9185 35.7462 27.26 35.9145 26.5921 35.9051ZM20.1068 30.5518C22.5768 32.9569 24.9153 34.3217 26.5905 34.3217H26.5921C27.0148 34.3217 27.3917 34.2299 27.7068 34.0478C29.2806 33.1406 29.5608 29.985 28.4747 25.729C26.787 26.1049 25.0765 26.3699 23.3542 26.5222C22.3619 27.9357 21.2771 29.2819 20.1068 30.5518ZM29.5925 14.1627L28.8452 13.9743C26.8762 13.4894 24.8708 13.1664 22.8491 13.0085L22.4786 12.9768L22.2648 12.6712C21.1175 11.0033 19.8355 9.43211 18.4316 7.97349L17.8932 7.42091L18.4316 6.86832C22.3804 2.81499 26.1488 1.21424 28.5 2.56799C30.894 3.94866 31.369 7.90382 29.8047 13.4217L29.5925 14.1627ZM23.3542 11.4632C25.1623 11.6278 26.8802 11.8954 28.4747 12.2564C29.5608 8.00041 29.2806 4.84641 27.7068 3.93916C26.1424 3.03507 23.2022 4.42049 20.1068 7.43516C21.2764 8.70512 22.3612 10.0507 23.3542 11.4632ZM11.4095 35.9051C10.741 35.9148 10.082 35.7465 9.5 35.4174C7.106 34.0383 6.631 30.0832 8.19692 24.5652L8.40592 23.8242L9.15325 24.0127C10.982 24.4734 12.9992 24.798 15.1462 24.9769L15.5182 25.0086L15.7304 25.3142C16.8792 26.9819 18.1617 28.5536 19.5653 30.0135L20.1036 30.5661L19.5653 31.1187C16.5601 34.2062 13.6626 35.9051 11.4095 35.9051ZM9.52533 25.729C8.43917 29.985 8.71942 33.1406 10.2933 34.0478C11.856 34.9392 14.7947 33.5649 17.8932 30.5518C16.7235 29.281 15.6382 27.9349 14.6442 26.5222C12.9224 26.37 11.2125 26.105 9.52533 25.729ZM19 26.7233C17.6969 26.7233 16.3574 26.6663 15.0163 26.5555L14.6442 26.5238L14.4305 26.2182C13.6719 25.1283 12.9588 24.0074 12.293 22.8584C11.6291 21.7085 11.0132 20.5316 10.4468 19.3307L10.2885 18.9935L10.4468 18.6562C11.0131 17.4553 11.6291 16.2784 12.293 15.1286C12.9485 13.9949 13.6689 12.8644 14.4305 11.7687L14.6442 11.4632L15.0163 11.4315C17.6679 11.2067 20.3337 11.2067 22.9853 11.4315L23.3558 11.4632L23.5679 11.7687C25.0866 13.9491 26.4197 16.253 27.5532 18.6562L27.7131 18.9935L27.5532 19.3307C26.4224 21.7354 25.0892 24.0395 23.5679 26.2182L23.3558 26.5238L22.9853 26.5555C21.6442 26.6663 20.3031 26.7233 19 26.7233ZM15.5214 25.007C17.8648 25.1827 20.1353 25.1827 22.4802 25.007C23.7893 23.0931 24.9516 21.0829 25.9572 18.9935C24.9534 16.9028 23.7905 14.8924 22.4786 12.98C20.1629 12.8042 17.8371 12.8042 15.5214 12.98C14.209 14.892 13.046 16.9025 12.0428 18.9935C13.0494 21.0826 14.2123 23.0928 15.5214 25.007Z" fill="#152EE0"/>
</svg>
