<svg width="75" height="52" viewBox="0 0 75 52" fill="none" xmlns="http://www.w3.org/2000/svg">
<path d="M6.22271 9.07937C8.02402 10.0248 33.0459 23.6035 33.9793 24.0925C34.9127 24.5816 35.8625 24.8098 37.3363 24.8098C38.8101 24.8098 39.7598 24.5816 40.6932 24.0925C41.6266 23.6035 66.6485 10.0248 68.4498 9.07937C69.1212 8.73705 70.2511 8.11762 70.4967 7.41668C70.9225 6.17781 70.464 5.70508 68.6463 5.70508H37.3363H6.02621C4.20852 5.70508 3.75 6.19411 4.17577 7.41668C4.4214 8.13392 5.55131 8.73705 6.22271 9.07937Z" fill="#E2E2E2"/>
<path d="M69.8745 9.81202C68.5317 10.4967 56.4793 19.0383 48.5044 24.1731L61.9651 39.2515C62.2926 39.5775 62.44 39.9687 62.2598 40.1644C62.0633 40.3437 61.6376 40.2459 61.2937 39.9361L45.1474 26.3738C42.7074 27.9387 40.988 29.0145 40.6932 29.1775C39.4323 29.8133 38.548 29.8948 37.3362 29.8948C36.1245 29.8948 35.2402 29.8133 33.9793 29.1775C33.6681 29.0145 31.9651 27.9387 29.5251 26.3738L13.3788 39.9361C13.0513 40.2622 12.6092 40.36 12.4127 40.1644C12.2162 39.985 12.3635 39.5775 12.6911 39.2515L26.1354 24.1731C18.1605 19.0383 5.97708 10.4967 4.63428 9.81202C3.19324 9.07848 3.11136 9.94243 3.11136 10.6108C3.11136 11.2791 3.11136 44.0277 3.11136 44.0277C3.11136 45.5437 5.35481 47.4346 6.95961 47.4346H37.3362H67.7129C69.3177 47.4346 71.2336 45.5274 71.2336 44.0277C71.2336 44.0277 71.2336 11.2628 71.2336 10.6108C71.2336 9.92613 71.3319 9.07848 69.8745 9.81202Z" fill="#E2E2E2"/>
</svg>
