<svg width="73" height="73" viewBox="0 0 73 73" fill="none" xmlns="http://www.w3.org/2000/svg">
<path d="M73 36.5C73 16.3416 56.6584 0 36.5 0C16.3416 0 0 16.3416 0 36.5C0 54.7182 13.3476 69.8184 30.7969 72.5566V47.0508H21.5293V36.5H30.7969V28.4586C30.7969 19.3108 36.2461 14.2578 44.5835 14.2578C48.5769 14.2578 52.7539 14.9707 52.7539 14.9707V23.9531H48.1513C43.6172 23.9531 42.2031 26.7666 42.2031 29.6531V36.5H52.3262L50.7079 47.0508H42.2031V72.5566C59.6525 69.8184 73 54.7182 73 36.5Z" fill="#1877F2"/>
<path d="M50.7079 47.0508L52.3262 36.5H42.2031V29.6531C42.2031 26.7666 43.6171 23.9531 48.1513 23.9531H52.7539V14.9707C52.7539 14.9707 48.5768 14.2578 44.5835 14.2578C36.2461 14.2578 30.7969 19.3108 30.7969 28.4586V36.5H21.5293V47.0508H30.7969V72.5566C32.6551 72.8482 34.5598 73 36.5 73C38.4402 73 40.3448 72.8482 42.2031 72.5566V47.0508H50.7079Z" fill="white"/>
</svg>
