<svg width="73" height="73" viewBox="0 0 73 73" fill="none" xmlns="http://www.w3.org/2000/svg">
<path fill-rule="evenodd" clip-rule="evenodd" d="M36.5055 0C16.3552 0 0.0168762 16.3383 0.0168762 36.4932C0.0168762 52.6147 10.4696 66.2931 24.9738 71.1203C26.7987 71.4533 27.3736 70.372 27.3736 69.4047C27.3736 68.5379 27.3919 66.1152 27.3736 63.0697C17.2243 65.2757 15.121 58.2631 15.121 58.2631C13.4626 54.0474 11.0718 52.925 11.0718 52.925C7.75944 50.662 11.3205 50.7053 11.3205 50.7053C14.9819 50.9631 16.9118 54.4671 16.9118 54.4671C20.1672 60.0402 25.4505 58.4297 27.5287 57.4989C27.8618 55.1401 28.8062 53.5318 29.8488 52.6193C21.7458 51.6977 13.2276 48.5678 13.2276 34.5837C13.2276 30.5984 14.6488 27.3431 16.9825 24.7926C16.6061 23.871 15.3514 20.1594 17.3407 15.1338C17.3407 15.1338 20.4044 14.1529 27.3736 18.8773C30.2845 18.0675 33.4075 17.6637 36.51 17.65C39.6102 17.6637 42.731 18.0675 45.6464 18.8773C52.6157 14.1552 55.6748 15.1338 55.6748 15.1338C57.6641 20.1594 56.4117 23.871 56.0375 24.7926C58.3713 27.3431 59.7879 30.5984 59.7879 34.5837C59.7879 48.6043 51.256 51.6886 43.1257 52.5897C44.4351 53.7189 45.6236 55.9089 45.6236 59.3125C45.6236 63.875 45.6236 68.2139 45.6236 69.4139C45.6236 70.3903 46.2122 71.4693 48.0646 71.1157C62.5551 66.2817 72.9986 52.6102 72.9986 36.4932C72.9986 16.3383 56.6603 0 36.5055 0Z" fill="#E2E2E2"/>
</svg>
