<svg width="74" height="74" viewBox="0 0 74 74" fill="none" xmlns="http://www.w3.org/2000/svg">
<path d="M37 0C26.9513 0 25.6913 0.0426367 21.7449 0.222723C17.8067 0.402375 15.117 1.02776 12.7634 1.9425C10.3304 2.88802 8.2669 4.15325 6.21007 6.21022C4.15311 8.26704 2.88788 10.3305 1.94236 12.7636C1.02762 15.117 0.40223 17.8067 0.222578 21.7449C0.0424922 25.6913 0 26.9513 0 37C0 47.0484 0.0424922 48.3084 0.222578 52.2548C0.40223 56.193 1.02762 58.8828 1.94236 61.2362C2.88788 63.6692 4.15311 65.7327 6.21007 67.7898C8.2669 69.8466 10.3304 71.1118 12.7634 72.0574C15.117 72.9719 17.8067 73.5975 21.7449 73.7771C25.6913 73.9571 26.9513 73.9997 37 73.9997C47.0484 73.9997 48.3084 73.9571 52.2548 73.7771C56.193 73.5975 58.8828 72.9719 61.2362 72.0574C63.6692 71.1118 65.7327 69.8466 67.7898 67.7898C69.8466 65.7327 71.1118 63.6692 72.0574 61.2362C72.9719 58.8828 73.5975 56.193 73.7771 52.2548C73.9571 48.3084 73.9997 47.0484 73.9997 37C73.9997 26.9513 73.9571 25.6913 73.7771 21.7449C73.5975 17.8067 72.9719 15.117 72.0574 12.7636C71.1118 10.3305 69.8466 8.26704 67.7898 6.21022C65.7327 4.15325 63.6692 2.88802 61.2362 1.9425C58.8828 1.02776 56.193 0.402375 52.2548 0.222723C48.3084 0.0426367 47.0484 0 37 0V0ZM37 6.66679C46.8793 6.66679 48.0496 6.70437 51.951 6.88243C55.5584 7.04705 57.5175 7.64975 58.8213 8.15633C60.5483 8.82753 61.7809 9.62939 63.0756 10.9241C64.3705 12.2188 65.1722 13.4515 65.8434 15.1784C66.3501 16.4822 66.9528 18.4413 67.1174 22.0487C67.2953 25.9503 67.3331 27.1206 67.3331 37C67.3331 46.8793 67.2953 48.0496 67.1174 51.951C66.9528 55.5584 66.3501 57.5175 65.8434 58.8213C65.1722 60.5483 64.3705 61.7809 63.0756 63.0756C61.7809 64.3705 60.5483 65.1722 58.8213 65.8434C57.5175 66.3501 55.5584 66.9528 51.951 67.1173C48.0501 67.2953 46.88 67.3331 37 67.3331C27.1197 67.3331 25.9499 67.2953 22.0487 67.1173C18.4413 66.9528 16.4822 66.3501 15.1784 65.8434C13.4514 65.1722 12.2188 64.3705 10.924 63.0756C9.62925 61.7809 8.82739 60.5483 8.15633 58.8213C7.64961 57.5175 7.04691 55.5584 6.88229 51.951C6.70423 48.0496 6.66665 46.8793 6.66665 37C6.66665 27.1206 6.70423 25.9503 6.88229 22.0487C7.04691 18.4413 7.64961 16.4822 8.15633 15.1784C8.82739 13.4515 9.62925 12.2188 10.924 10.9241C12.2188 9.62939 13.4514 8.82753 15.1784 8.15633C16.4822 7.64975 18.4413 7.04705 22.0487 6.88243C25.9503 6.70437 27.1206 6.66679 37 6.66679Z" fill="url(#paint0_linear)"/>
<path d="M36.9999 49.3274C30.1882 49.3274 24.6664 43.8055 24.6664 36.9942C24.6664 30.1826 30.1882 24.6608 36.9999 24.6608C43.8112 24.6608 49.333 30.1826 49.333 36.9942C49.333 43.8055 43.8112 49.3274 36.9999 49.3274ZM36.9999 17.9941C26.5063 17.9941 17.9998 26.5007 17.9998 36.9942C17.9998 47.4875 26.5063 55.994 36.9999 55.994C47.4931 55.994 55.9997 47.4875 55.9997 36.9942C55.9997 26.5007 47.4931 17.9941 36.9999 17.9941Z" fill="url(#paint1_linear)"/>
<path d="M61.1904 17.2309C61.1904 19.6831 59.2026 21.6709 56.7504 21.6709C54.2983 21.6709 52.3104 19.6831 52.3104 17.2309C52.3104 14.7788 54.2983 12.791 56.7504 12.791C59.2026 12.791 61.1904 14.7788 61.1904 17.2309Z" fill="url(#paint2_linear)"/>
<defs>
<linearGradient id="paint0_linear" x1="43.4764" y1="-3.92089" x2="21.852" y2="67.5209" gradientUnits="userSpaceOnUse">
<stop stop-color="#515BD4"/>
<stop offset="0.26" stop-color="#9510B8"/>
<stop offset="0.66" stop-color="#E51804"/>
<stop offset="1" stop-color="#FEDA77"/>
</linearGradient>
<linearGradient id="paint1_linear" x1="43.4763" y1="-3.92667" x2="21.8518" y2="67.5151" gradientUnits="userSpaceOnUse">
<stop stop-color="#515BD4"/>
<stop offset="0.26" stop-color="#9510B8"/>
<stop offset="0.66" stop-color="#E51804"/>
<stop offset="1" stop-color="#FFBF00"/>
</linearGradient>
<linearGradient id="paint2_linear" x1="43.4764" y1="-3.93924" x2="21.8519" y2="67.5026" gradientUnits="userSpaceOnUse">
<stop stop-color="#515BD4"/>
<stop offset="0.26" stop-color="#9510B8"/>
<stop offset="0.66" stop-color="#E51804"/>
<stop offset="1" stop-color="#FFBF00"/>
</linearGradient>
</defs>
</svg>
