<?xml version="1.0" encoding="UTF-8" standalone="no"?>
<svg
   xmlns:dc="http://purl.org/dc/elements/1.1/"
   xmlns:cc="http://creativecommons.org/ns#"
   xmlns:rdf="http://www.w3.org/1999/02/22-rdf-syntax-ns#"
   xmlns:svg="http://www.w3.org/2000/svg"
   xmlns="http://www.w3.org/2000/svg"
   xmlns:sodipodi="http://sodipodi.sourceforge.net/DTD/sodipodi-0.dtd"
   xmlns:inkscape="http://www.inkscape.org/namespaces/inkscape"
   data-name="Layer 1"
   id="Layer_1"
   viewBox="0 0 64 64"
   version="1.1"
   sodipodi:docname="iconfinder_simpline_49_2305613.svg"
   inkscape:version="1.0.2 (1.0.2+r75+1)">
  <metadata
     id="metadata19">
    <rdf:RDF>
      <cc:Work
         rdf:about="">
        <dc:format>image/svg+xml</dc:format>
        <dc:type
           rdf:resource="http://purl.org/dc/dcmitype/StillImage" />
      </cc:Work>
    </rdf:RDF>
  </metadata>
  <sodipodi:namedview
     pagecolor="#ffffff"
     bordercolor="#666666"
     borderopacity="1"
     objecttolerance="10"
     gridtolerance="10"
     guidetolerance="10"
     inkscape:pageopacity="0"
     inkscape:pageshadow="2"
     inkscape:window-width="1294"
     inkscape:window-height="704"
     id="namedview17"
     showgrid="false"
     inkscape:zoom="9.109375"
     inkscape:cx="32"
     inkscape:cy="32"
     inkscape:window-x="72"
     inkscape:window-y="27"
     inkscape:window-maximized="1"
     inkscape:current-layer="Layer_1" />
  <defs
     id="defs4">
    <style
       id="style2">.cls-1{fill:none;stroke:#078cd6;stroke-linecap:round;stroke-linejoin:round;stroke-width:2px;}</style>
  </defs>
  <title
     id="title6" />
  <path
     class="cls-1"
     d="M33.06,46.94A31.45,31.45,0,0,1,16.89,30.55l4.21-2.84a26.28,26.28,0,0,1-1.77-9.44H9.27A36.46,36.46,0,0,0,45.73,54.73V44.67A26.29,26.29,0,0,1,36,42.78Z"
     id="path8"
     style="stroke:#152ee0;stroke-opacity:1" />
  <path
     class="cls-1"
     d="M30.73,21.27a12,12,0,0,1,12,12"
     id="path10"
     style="stroke:#152ee0;stroke-opacity:1" />
  <path
     class="cls-1"
     d="M30.73,15.27a18,18,0,0,1,18,18"
     id="path12"
     style="stroke:#152ee0;stroke-opacity:1" />
  <path
     class="cls-1"
     d="M30.73,9.27a24,24,0,0,1,24,24"
     id="path14"
     style="stroke:#152ee0;stroke-opacity:1" />
</svg>
