<svg width="59" height="59" viewBox="0 0 59 59" fill="none" xmlns="http://www.w3.org/2000/svg">
<path d="M55.401 42.421H48.9464V39.1878H52.1678V29.7596L49.3948 21.417H37.6302V39.1878H39.2468V42.421H34.4088V18.1838H51.7194L55.401 29.2286V42.421Z" fill="#152EE0"/>
<path d="M44.0966 47.2591C40.533 47.2591 37.6302 44.3563 37.6302 40.7927C37.6302 37.2291 40.533 34.3263 44.0966 34.3263C47.6602 34.3263 50.563 37.2291 50.563 40.7927C50.563 44.3563 47.6602 47.2591 44.0966 47.2591ZM44.0966 37.5713C42.3148 37.5713 40.8634 39.0227 40.8634 40.8045C40.8634 42.5863 42.3148 44.0377 44.0966 44.0377C45.8784 44.0377 47.3298 42.5863 47.3298 40.8045C47.3298 39.0227 45.8784 37.5713 44.0966 37.5713Z" fill="#152EE0"/>
<path d="M37.6302 42.4211H21.4878V39.1879H34.4088V14.9624H6.9502V39.1879H11.7882V42.4211H3.717V11.7292H37.6302V42.4211Z" fill="#152EE0"/>
<path d="M16.638 47.259C13.0744 47.259 10.1716 44.3562 10.1716 40.7926C10.1716 37.229 13.0744 34.338 16.638 34.338C20.2016 34.338 23.1044 37.2408 23.1044 40.8044C23.1044 44.368 20.2016 47.259 16.638 47.259ZM16.638 37.5712C14.8562 37.5712 13.4048 39.0226 13.4048 40.8044C13.4048 42.5862 14.8562 44.0376 16.638 44.0376C18.4198 44.0376 19.8712 42.5862 19.8712 40.8044C19.8712 39.0226 18.4198 37.5712 16.638 37.5712Z" fill="#152EE0"/>
<path d="M19.8712 31.7774L12.2602 24.1782L14.5494 21.889L19.8712 27.2108L28.4144 18.6676L30.7036 20.945L19.8712 31.7774Z" fill="#152EE0"/>
</svg>
