<svg width="46" height="46" viewBox="0 0 46 46" fill="none" xmlns="http://www.w3.org/2000/svg">
<path d="M13.2711 7.95086H14.915V9.75133H16.713V4.37427H14.915V6.15121H13.2711V4.37427H11.4739V9.75133H13.2711V7.95086Z" fill="#152EE0"/>
<path d="M19.0758 9.75133H20.873V6.15851H22.4544V4.37427H17.4944V6.15851H19.0758V9.75133Z" fill="#152EE0"/>
<path d="M25.0005 7.08755L26.2387 8.99837H26.2687L27.5044 7.08755V9.75133H29.2952V4.37427H27.4209L26.2687 6.26642L25.1165 4.37427H23.243V9.75133H25.0005V7.08755Z" fill="#152EE0"/>
<path d="M34.514 7.97521H31.9866V4.37427H30.1893V9.75133H34.514V7.97521Z" fill="#152EE0"/>
<path d="M8.88391 12.1108L11.4544 40.9411L22.9931 44.1436L34.5408 40.9427L37.1161 12.1108H8.88391ZM31.5395 21.5392H22.9996H18.008L18.3309 25.1604H22.9996H31.2182L30.2486 36.0192L22.9996 38.0274L22.9948 38.029L15.7507 36.0192L15.2452 30.3395H18.7942L19.0571 33.2856L22.9956 34.3502L23.0004 34.3485L26.943 33.284L27.3535 28.698H23.0004H15.0983L14.1433 18.0048H22.9996H31.8551L31.5395 21.5392Z" fill="#152EE0"/>
</svg>
