<svg width="43" height="43" viewBox="0 0 43 43" fill="none" xmlns="http://www.w3.org/2000/svg">
<path d="M30.7808 17.0531C28.518 7.09142 23.1806 3.81804 22.6073 2.56567C21.9766 1.68238 21.294 0 21.294 0C21.2904 0.0340417 21.2868 0.0555417 21.285 0.0877917V0.111083H21.2832C21.2796 0.137958 21.2778 0.155875 21.276 0.180958V0.207833H21.2725C21.2725 0.22575 21.2689 0.240083 21.2689 0.254417V0.301H21.2635C21.2617 0.315333 21.2617 0.33325 21.2581 0.345792V0.383417H21.2545C21.2545 0.395958 21.2545 0.410292 21.251 0.421042V0.456875H21.2474C21.2474 0.474792 21.2456 0.496292 21.2438 0.514208V0.517792C21.2384 0.54825 21.233 0.578708 21.2277 0.607375V0.621708H21.2241C21.2223 0.628875 21.2187 0.636042 21.2187 0.643208V0.673667H21.2133V0.713083H21.2044V0.745333H21.1954V0.782958H21.1883V0.817H21.1811V0.847458H21.1703V0.872542H21.1632V0.904792H21.156V0.929875H21.147V0.953167H21.1417V0.980042H21.1345C21.1327 0.981833 21.1327 0.985417 21.1327 0.987208V1.00512H21.1273C21.1255 1.00871 21.1255 1.01229 21.1255 1.01587V1.02663H21.122C21.1202 1.032 21.1184 1.04096 21.1184 1.04454C21.113 1.05708 21.1058 1.06962 21.1005 1.08217V1.08575C21.0969 1.08933 21.0933 1.09471 21.0915 1.09829V1.11263H21.0843V1.12696H21.0754V1.14129H21.07V1.15921H21.0592V1.18429H21.0521V1.19146H21.0449V1.20579H21.0377V1.2255H21.0306V1.23983H21.0198V1.25954H21.0127V1.27387H21.0037V1.28821H20.9983V1.30612H20.9894V1.32046H20.9822V1.33121H20.975V1.34554H20.9643V1.36167H20.9571V1.37242H20.9482V1.38675H20.941V1.40646H20.932V1.41362H20.9267V1.42796H20.9159V1.43512H20.9087V1.45304H20.9016V1.46021H20.8944V1.47454H20.8855V1.48529H20.8801L20.8765 1.49246V1.49962H20.8729C20.8711 1.50321 20.8693 1.50321 20.8693 1.50679V1.50858H20.8675C20.8658 1.51396 20.864 1.51754 20.8604 1.52112V1.5265H20.8586C20.8496 1.53725 20.8442 1.548 20.8371 1.55875V1.56054C20.8335 1.56412 20.8245 1.57129 20.821 1.57846V1.58204H20.8192C20.8174 1.58383 20.8138 1.58562 20.8138 1.58742V1.59279H20.8102L20.8048 1.59817V1.59996H20.803C20.803 1.60175 20.7995 1.60354 20.7977 1.60713V1.61429H20.7923L20.7887 1.61787V1.62146H20.7851C20.7851 1.62504 20.7815 1.62504 20.7815 1.62683V1.63221H20.7744C20.7744 1.634 20.7726 1.63579 20.7708 1.63758V1.64833H20.7654V1.6555H20.7583V1.66625H20.7511V1.68058H20.7421V1.66625H20.7332V1.67342H20.726V1.68417H20.717V1.6985H20.7081V1.70567H20.7009V1.71642H20.6938V1.72358H20.6866V1.73792H20.6758V1.74508H20.6687V1.75583H20.6597V1.763H20.6525V1.77196H20.6436V1.78988H20.64V1.79704H20.6292V1.806H20.6221V1.80958H20.6149V1.81675H20.606V1.83467H20.5988V1.84183H20.5898V1.849H20.5827V1.85975H20.5737V1.86692H20.5647V1.87408H20.5576V1.88125H20.5504V1.89917H20.5432V1.90813H20.5325V1.91529H20.5253V1.92246H20.5164V1.93321H20.5092V1.94037H20.5003V1.95292H20.4931V1.96008H20.4823V1.97083H20.4788V1.978H20.4716V1.98517H20.4626V1.99233H20.4555V2.00308H20.4465V2.01025H20.4411C20.4393 2.01204 20.4393 2.01383 20.4393 2.01383V2.01742H20.4358L20.4286 2.02458C20.4286 2.02458 20.425 2.02817 20.4214 2.02996V2.04071H20.4142V2.04967H20.4071V2.05683H20.3999V2.064H20.3945L20.3892 2.06937V2.07475H20.3856L20.382 2.07833V2.08371H20.3784C20.3695 2.09446 20.3659 2.10162 20.3533 2.11238C20.3497 2.11596 20.339 2.12492 20.3318 2.13029C20.3103 2.14462 20.2835 2.16792 20.262 2.18762C20.2476 2.19658 20.2333 2.20913 20.2225 2.21808V2.21987H20.2207C20.1921 2.24317 20.1652 2.26467 20.133 2.28975V2.29154C20.09 2.32737 20.0487 2.36142 20.0004 2.40262V2.40083H19.9968C19.8947 2.48504 19.7872 2.58 19.6635 2.68571V2.6875H19.6617C19.359 2.95267 18.9988 3.29308 18.5957 3.70517L18.5688 3.73204L18.5617 3.73921C16.125 6.26008 12.2855 11.5132 11.8805 20.0022C11.8447 20.7045 11.8519 21.3871 11.8913 22.0518V22.068C12.0866 25.413 13.1365 28.2689 14.4498 30.5891V30.5909C14.973 31.5154 15.5373 32.3557 16.1089 33.1082V33.11C18.0833 35.7169 20.0989 37.2613 20.6131 37.6357C21.4032 39.4686 21.3298 42.6148 21.3298 42.6148L22.4836 43C22.4836 43 22.2489 39.9524 22.5786 38.4814C22.6807 38.021 22.9226 37.6286 23.2039 37.2953C23.3938 37.161 23.9564 36.756 24.6318 36.1397C24.6641 36.1057 24.682 36.0752 24.7107 36.043C27.4358 33.5024 32.5259 27.2459 30.7808 17.0531Z" fill="#152EE0"/>
</svg>
