<svg width="48" height="48" viewBox="0 0 48 48" fill="none" xmlns="http://www.w3.org/2000/svg">
<path d="M23.9914 45.5623C23.418 45.5623 22.8361 45.4084 22.3312 45.1174L17.0513 41.994C16.2641 41.549 16.6492 41.395 16.9059 41.3093C17.9584 40.9414 18.1723 40.8645 19.2933 40.2226C19.4132 40.1542 19.5672 40.1797 19.6869 40.2569L23.7431 42.6614C23.8886 42.7469 24.0938 42.7469 24.2308 42.6614L40.0363 33.5392C40.1819 33.4536 40.2758 33.2825 40.2758 33.1114V14.8671C40.2758 14.6873 40.1819 14.5248 40.0279 14.4307L24.2309 5.31703C24.0855 5.23144 23.8887 5.23144 23.7432 5.31703L7.95487 14.4392C7.80075 14.5248 7.70672 14.6959 7.70672 14.8756V33.1114C7.70672 33.2825 7.80075 33.4536 7.95487 33.5307L12.285 36.0294C14.6383 37.2017 16.0759 35.824 16.0759 34.4293V16.4244C16.0759 16.1678 16.2812 15.971 16.5381 15.971H18.5405C18.7886 15.971 19.0025 16.1678 19.0025 16.4244V34.4378C19.0025 37.5697 17.291 39.3668 14.3217 39.3668C13.406 39.3668 12.6872 39.3668 10.6848 38.3742L6.543 35.9867C5.51606 35.3962 4.88287 34.2922 4.88287 33.1029V14.8671C4.88287 13.6862 5.51606 12.5737 6.543 11.9833L22.3312 2.86106C23.3324 2.29631 24.6589 2.29631 25.6515 2.86106L41.4572 11.9917C42.484 12.5822 43.1172 13.6861 43.1172 14.8756V33.1114C43.1172 34.2922 42.484 35.3962 41.4572 35.9952L25.6515 45.1174C25.1466 45.4084 24.5731 45.5623 23.9914 45.5623ZM36.7506 27.5834C36.7506 24.1689 34.44 23.2619 29.5881 22.6202C24.6759 21.9697 24.1797 21.636 24.1797 20.4893C24.1797 19.5396 24.5991 18.273 28.2359 18.273C31.4793 18.273 32.6773 18.9747 33.1735 21.1655C33.2164 21.3708 33.4048 21.5248 33.6185 21.5248H35.6725C35.8007 21.5248 35.9205 21.4735 36.0062 21.3793C36.0919 21.2853 36.1345 21.1568 36.1257 21.0284C35.8093 17.2548 33.3019 15.5004 28.2359 15.5004C23.7262 15.5004 21.0393 17.4002 21.0393 20.5921C21.0393 24.0492 23.7176 25.0078 28.039 25.4354C33.2164 25.9404 33.6185 26.7021 33.6185 27.7204C33.6185 29.4833 32.1982 30.2362 28.8693 30.2362C24.6847 30.2362 23.769 29.1836 23.4609 27.1043C23.4267 26.8819 23.2384 26.7193 23.0075 26.7193H20.9621C20.7054 26.7193 20.5087 26.9247 20.5087 27.1727C20.5087 29.8342 21.9549 33.009 28.8779 33.009C33.8752 33.0004 36.7506 31.0233 36.7506 27.5834Z" fill="#152EE0"/>
</svg>
