<svg width="33" height="33" viewBox="0 0 33 33" fill="none" xmlns="http://www.w3.org/2000/svg">
<path d="M16.5 13.5588C16.1138 13.5588 15.7313 13.6349 15.3745 13.7827C15.0176 13.9305 14.6934 14.1472 14.4203 14.4203C14.1472 14.6934 13.9306 15.0176 13.7828 15.3744C13.6349 15.7313 13.5589 16.1137 13.5589 16.5C13.5589 16.8862 13.6349 17.2686 13.7828 17.6255C13.9306 17.9823 14.1472 18.3065 14.4203 18.5797C14.6934 18.8528 15.0176 19.0694 15.3745 19.2172C15.7313 19.365 16.1138 19.4411 16.5 19.4411C16.8862 19.4411 17.2687 19.365 17.6255 19.2172C17.9824 19.0694 18.3066 18.8528 18.5797 18.5797C18.8528 18.3065 19.0694 17.9823 19.2172 17.6255C19.3651 17.2686 19.4411 16.8862 19.4411 16.5C19.4411 16.1137 19.3651 15.7313 19.2172 15.3744C19.0694 15.0176 18.8528 14.6934 18.5797 14.4203C18.3066 14.1472 17.9824 13.9305 17.6255 13.7827C17.2687 13.6349 16.8862 13.5588 16.5 13.5588ZM8.261 22.3506L7.612 22.1856C2.77475 20.9632 0 18.8883 0 16.4945C0 14.1006 2.77475 12.0257 7.612 10.8033L8.261 10.6397L8.44387 11.2832C8.9339 12.9713 9.56068 14.6167 10.318 16.203L10.4569 16.4958L10.318 16.7887C9.55942 18.3745 8.9326 20.0199 8.44387 21.7085L8.261 22.3506ZM7.31087 12.3062C3.63412 13.3388 1.37775 14.9187 1.37775 16.4945C1.37775 18.0688 3.63412 19.6487 7.31087 20.6827C7.76053 19.2526 8.30345 17.8535 8.93612 16.4945C8.30272 15.1357 7.75979 13.7366 7.31087 12.3062ZM24.739 22.3506L24.5561 21.7057C24.0666 20.0177 23.4393 18.3727 22.6806 16.7873L22.5417 16.4945L22.6806 16.2016C23.439 14.6156 24.0663 12.9702 24.5561 11.2818L24.739 10.6383L25.3894 10.802C30.2253 12.0243 33 14.0992 33 16.4945C33 18.8897 30.2253 20.9632 25.3894 22.1856L24.739 22.3506ZM24.0639 16.4945C24.7239 17.9231 25.2698 19.327 25.6891 20.6827C29.3673 19.6487 31.6222 18.0688 31.6222 16.4945C31.6222 14.9187 29.3659 13.3402 25.6891 12.3062C25.2401 13.7365 24.6971 15.1356 24.0639 16.4945ZM7.30125 12.2993L7.11837 11.6572C5.7585 6.86396 6.171 3.42921 8.25 2.23021C10.2891 1.05321 13.563 2.44334 16.9936 5.96471L17.4611 6.44459L16.9936 6.92446C15.7746 8.19167 14.6609 9.55606 13.6634 11.0041L13.4777 11.2695L13.1546 11.297C11.4 11.4353 9.65949 11.7158 7.95025 12.1357L7.30125 12.2993ZM9.90825 3.18309C9.53975 3.18309 9.21387 3.26284 8.93888 3.42096C7.57212 4.20884 7.33012 6.94784 8.272 10.6438C9.73725 10.3179 11.2222 10.0878 12.7174 9.95496C13.5801 8.7283 14.5226 7.55977 15.5389 6.45696C13.3939 4.36834 11.363 3.18309 9.90825 3.18309ZM23.0931 31.1808C23.0917 31.1808 23.0917 31.1808 23.0931 31.1808C21.1338 31.1808 18.6175 29.7055 16.0064 27.0242L15.5389 26.5443L16.0064 26.0645C17.2251 24.7968 18.3384 23.432 19.3353 21.9835L19.5209 21.7181L19.8426 21.6906C21.5982 21.553 23.3396 21.273 25.0498 20.8532L25.6988 20.6896L25.883 21.3331C27.2401 26.1236 26.829 29.5597 24.75 30.7573C24.245 31.0429 23.6732 31.189 23.0931 31.1808ZM17.4611 26.532C19.6061 28.6206 21.637 29.8058 23.0918 29.8058H23.0931C23.4603 29.8058 23.7875 29.7261 24.0611 29.568C25.4279 28.7801 25.6712 26.0397 24.728 22.3437C23.2624 22.6701 21.7769 22.9002 20.2812 23.0326C19.4196 24.2601 18.4775 25.4291 17.4611 26.532ZM25.6988 12.2993L25.0498 12.1357C23.3398 11.7146 21.5983 11.4341 19.8426 11.297L19.5209 11.2695L19.3353 11.0041C18.3389 9.5556 17.2255 8.19116 16.0064 6.92446L15.5389 6.44459L16.0064 5.96471C19.4356 2.44471 22.7081 1.05459 24.75 2.23021C26.829 3.42921 27.2415 6.86396 25.883 11.6558L25.6988 12.2993ZM20.2812 9.95496C21.8515 10.098 23.3434 10.3303 24.728 10.6438C25.6712 6.94784 25.4279 4.20884 24.0611 3.42096C22.7026 2.63584 20.1493 3.83896 17.4611 6.45696C18.4769 7.55982 19.419 8.72835 20.2812 9.95496ZM9.90825 31.1808C9.32772 31.1893 8.7554 31.0431 8.25 30.7573C6.171 29.5597 5.7585 26.125 7.11837 21.3331L7.29988 20.6896L7.94888 20.8532C9.537 21.2533 11.2887 21.5352 13.1532 21.6906L13.4764 21.7181L13.6606 21.9835C14.6583 23.4318 15.772 24.7966 16.9909 26.0645L17.4584 26.5443L16.9909 27.0242C14.3811 29.7055 11.8649 31.1808 9.90825 31.1808ZM8.272 22.3437C7.32875 26.0397 7.57212 28.7801 8.93888 29.568C10.296 30.3421 12.848 29.1486 15.5389 26.532C14.523 25.4283 13.5805 24.2594 12.7174 23.0326C11.2221 22.9004 9.73714 22.6702 8.272 22.3437ZM16.5 23.2072C15.3684 23.2072 14.2051 23.1577 13.0405 23.0615L12.7174 23.034L12.5318 22.7686C11.873 21.822 11.2537 20.8486 10.6755 19.8508C10.099 18.8523 9.56412 17.8302 9.07225 16.7873L8.93475 16.4945L9.07225 16.2016C9.56404 15.1587 10.0989 14.1366 10.6755 13.1381C11.2448 12.1536 11.8704 11.1718 12.5318 10.2203L12.7174 9.95496L13.0405 9.92746C15.3432 9.73221 17.6582 9.73221 19.9609 9.92746L20.2826 9.95496L20.4669 10.2203C21.7857 12.1138 22.9434 14.1146 23.9277 16.2016L24.0666 16.4945L23.9277 16.7873C22.9458 18.8756 21.788 20.8766 20.4669 22.7686L20.2826 23.034L19.9609 23.0615C18.7962 23.1577 17.6316 23.2072 16.5 23.2072ZM13.4791 21.7167C15.5141 21.8693 17.4859 21.8693 19.5222 21.7167C20.6591 20.0547 21.6685 18.3089 22.5417 16.4945C21.6701 14.6789 20.6601 12.933 19.5209 11.2722C17.5098 11.1196 15.4902 11.1196 13.4791 11.2722C12.3394 12.9327 11.3294 14.6786 10.4583 16.4945C11.3324 18.3087 12.3422 20.0544 13.4791 21.7167Z" fill="#152EE0"/>
</svg>
