<svg width="31" height="31" viewBox="0 0 31 31" fill="none" xmlns="http://www.w3.org/2000/svg">
<path d="M21.4843 21.3178C22.6068 21.2209 23.4773 20.2328 23.4205 19.0522C23.3611 17.8716 22.3936 16.9235 21.2143 16.9235H21.1356C19.9175 16.9636 18.9681 17.9879 19.0069 19.2085C19.0456 19.8272 19.2988 20.331 19.645 20.6978C18.2913 23.3302 16.2595 25.2651 13.1815 26.8913C11.1109 27.9737 8.92413 28.3819 6.79547 28.0913C5.01555 27.8407 3.62313 27.045 2.77063 25.7689C1.49447 23.8327 1.37822 21.744 2.44126 19.6541C3.21755 18.1442 4.37747 17.0411 5.15247 16.4986C4.95872 15.9961 4.72622 15.1449 4.60997 14.5068C-1.11987 18.6105 -0.537325 24.2215 1.20384 26.8732C2.50067 28.8082 5.15247 30.0456 8.05484 30.0456C8.82855 30.0456 9.6423 29.9887 10.4354 29.795C15.4677 28.8275 19.2794 25.8089 21.4662 21.3578L21.4843 21.3178ZM28.3921 16.4792C25.3942 12.9568 20.9806 11.0219 15.9482 11.0219H15.2895C14.9627 10.3063 14.2083 9.8607 13.3558 9.8607H13.2977C12.0797 9.8607 11.1303 10.907 11.1703 12.125C11.2091 13.2849 12.1959 14.2537 13.3765 14.2537H13.4721C14.344 14.2149 15.0983 13.6724 15.407 12.8987H16.1239C19.1063 12.8987 21.9299 13.7693 24.5042 15.4717C26.4766 16.7685 27.891 18.471 28.6841 20.504C29.379 22.1677 29.3415 23.7939 28.6259 25.1502C27.5228 27.2775 25.6641 28.4013 23.2074 28.4013C21.6587 28.4013 20.15 27.9169 19.375 27.5695C18.9113 27.9544 18.1363 28.5937 17.5744 28.9812C19.2768 29.7537 20.9999 30.1993 22.6636 30.1993C26.4378 30.1993 29.2421 28.0719 30.3077 26.0195C31.4676 23.697 31.372 19.7885 28.4102 16.4405L28.3921 16.4792ZM8.38293 22.0127C8.42038 23.1739 9.40722 24.1414 10.5891 24.1414H10.6666C11.9053 24.1026 12.8534 23.0783 12.7953 21.8577C12.7953 20.6965 11.7891 19.7303 10.6085 19.7303H10.5297C10.4522 19.7303 10.3372 19.7303 10.2391 19.7678C8.63351 17.0579 7.95538 14.1542 8.20855 11.0219C8.36226 8.66075 9.13726 6.60829 10.5297 4.90587C11.6909 3.45404 13.8777 2.73716 15.3683 2.6997C19.5481 2.62091 21.2906 7.82891 21.4249 9.89945L23.3598 10.4794C22.9142 4.13216 18.9681 0.802246 15.1939 0.802246C11.6521 0.802246 8.38293 3.37654 7.06542 7.15079C5.26613 12.1831 6.44672 17.0204 8.65288 20.8915C8.46043 21.1434 8.34418 21.5877 8.38293 22.0127Z" fill="#152EE0"/>
</svg>
