<svg width="150" height="150" viewBox="0 0 150 150" fill="none" xmlns="http://www.w3.org/2000/svg">
<path fill-rule="evenodd" clip-rule="evenodd" d="M27.7778 120.716V45.8571H9.07997V120.716H27.7778ZM29.7659 45.8571V120.716H134.682V45.8571H29.7659ZM17.7826 35.0762C17.4674 34.76 17.0311 34.5568 16.5463 34.5568C16.0614 34.5568 15.6252 34.7597 15.3102 35.0762C14.9868 35.3927 14.7929 35.8388 14.7929 36.3177C14.7929 36.8041 14.9868 37.2506 15.3102 37.5668C15.6255 37.883 16.0614 38.0777 16.5463 38.0777C17.0311 38.0777 17.4677 37.883 17.7826 37.5668C18.0976 37.2506 18.2997 36.8041 18.2997 36.3177C18.2997 35.8388 18.0978 35.3927 17.7826 35.0762ZM16.5463 32.5697C17.5805 32.5697 18.5098 32.9918 19.1886 33.665C19.8671 34.3462 20.2875 35.2874 20.2875 36.318C20.2875 37.3562 19.8671 38.2971 19.1886 38.9788C18.5098 39.6521 17.5805 40.0738 16.5463 40.0738C15.5118 40.0738 14.5749 39.6521 13.904 38.9788C13.2252 38.2974 12.8048 37.3562 12.8048 36.318C12.8048 35.2874 13.2252 34.3465 13.904 33.665C14.5749 32.9915 15.5118 32.5697 16.5463 32.5697ZM26.5336 35.0762C26.2184 34.76 25.7739 34.5568 25.2891 34.5568C24.8124 34.5568 24.3677 34.7597 24.0527 35.0762C23.7375 35.3927 23.5438 35.8388 23.5438 36.3177C23.5438 36.8041 23.7375 37.2506 24.0527 37.5668C24.368 37.883 24.8124 38.0777 25.2891 38.0777C25.7739 38.0777 26.2184 37.883 26.5336 37.5668C26.8488 37.2506 27.0425 36.8041 27.0425 36.3177C27.0428 35.8388 26.8488 35.3927 26.5336 35.0762ZM25.2894 32.5697C26.3238 32.5697 27.2607 32.9918 27.9398 33.665C28.6104 34.3462 29.0309 35.2874 29.0309 36.318C29.0309 37.3562 28.6104 38.2971 27.9398 38.9788C27.261 39.6521 26.3238 40.0738 25.2894 40.0738C24.2634 40.0738 23.3259 39.6521 22.6471 38.9788C21.9762 38.2974 21.5563 37.3562 21.5563 36.318C21.5563 35.2874 21.9765 34.3465 22.6471 33.665C23.3259 32.9915 24.2631 32.5697 25.2894 32.5697ZM35.2767 35.0762C34.9614 34.76 34.5252 34.5568 34.0403 34.5568C33.5555 34.5568 33.1189 34.7597 32.804 35.0762C32.4809 35.3927 32.2866 35.8388 32.2866 36.3177C32.2866 36.8041 32.4809 37.2506 32.804 37.5668C33.1192 37.883 33.5555 38.0777 34.0403 38.0777C34.5249 38.0777 34.9614 37.883 35.2767 37.5668C35.5919 37.2506 35.794 36.8041 35.794 36.3177C35.794 35.8388 35.5919 35.3927 35.2767 35.0762ZM34.0403 32.5697C35.0745 32.5697 36.0117 32.9918 36.6826 33.665C37.3611 34.3462 37.7815 35.2874 37.7815 36.318C37.7815 37.3562 37.3611 38.2971 36.6826 38.9788C36.0117 39.6521 35.0745 40.0738 34.0403 40.0738C33.0059 40.0738 32.0689 39.6521 31.3977 38.9788C30.7192 38.2974 30.2988 37.3562 30.2988 36.318C30.2988 35.2874 30.7192 34.3465 31.3977 33.665C32.0689 32.9915 33.0061 32.5697 34.0403 32.5697ZM87.7992 80.0821C86.2236 78.5003 84.0501 77.5185 81.6501 77.5185C79.2422 77.5185 77.0684 78.5003 75.4928 80.0821C73.9172 81.6638 72.9475 83.8462 72.9475 86.2553C72.9475 88.6727 73.9172 90.8547 75.4928 92.4365C77.0684 94.0186 79.2422 94.9921 81.6501 94.9921C84.0501 94.9921 86.2236 94.0183 87.7992 92.4365C89.3751 90.8547 90.3445 88.6727 90.3445 86.2553C90.3445 83.8462 89.3748 81.6638 87.7992 80.0821ZM81.6498 75.5312C84.5991 75.5312 87.2739 76.7318 89.2052 78.6709C91.1364 80.6094 92.3326 83.2947 92.3326 86.2556C92.3326 89.2162 91.1364 91.9015 89.2052 93.8483C87.2739 95.7871 84.5991 96.988 81.6498 96.988C78.6926 96.988 76.0178 95.7871 74.0868 93.8483C72.1556 91.9015 70.96 89.2162 70.96 86.2556C70.96 83.2947 72.1559 80.6094 74.0868 78.6709C76.0181 76.7318 78.6926 75.5312 81.6498 75.5312ZM54.2493 88.1618V83.4974L61.6913 82.378C61.7801 81.8912 61.8853 81.4286 62.0065 80.9744C62.1278 80.5124 62.2652 80.0497 62.4267 79.5956L56.5441 74.8909L59.2913 70.1127L66.2971 72.8785C66.6123 72.5138 66.9354 72.1571 67.2747 71.8244C67.6061 71.4918 67.9532 71.1674 68.3171 70.8427L65.5699 63.8177L70.3295 61.0591L75.0158 66.965C75.4685 66.8027 75.9293 66.6565 76.3816 66.5353C76.8343 66.4135 77.303 66.308 77.7794 66.2188L78.8947 58.7477H84.3973L85.5126 66.2188C85.9893 66.308 86.458 66.4135 86.9103 66.5353C87.3709 66.6647 87.8232 66.8027 88.2838 66.965L92.9704 61.0591L97.7218 63.8177L94.9743 70.8427C95.3382 71.1591 95.6936 71.4918 96.0249 71.8324C96.3563 72.1571 96.6794 72.5135 97.0028 72.8785L104 70.1206L106.748 74.8909L100.865 79.5956C101.027 80.05 101.164 80.5124 101.285 80.9744C101.407 81.4288 101.52 81.8912 101.609 82.3697L109.051 83.4974V89.0215L101.609 90.1412C101.52 90.6197 101.407 91.0903 101.285 91.5365C101.164 91.9988 101.027 92.4615 100.865 92.9153L106.748 97.6203L104 102.399L97.0028 99.6321C96.6794 100.006 96.3563 100.354 96.0249 100.687C95.6856 101.027 95.3382 101.352 94.9743 101.668L97.7218 108.701L92.9704 111.46L88.2838 105.554C87.8232 105.708 87.3709 105.854 86.9021 105.976C86.4574 106.098 85.989 106.203 85.5123 106.292L84.397 113.764H78.8944L77.7791 106.292C77.3024 106.203 76.8337 106.098 76.3896 105.976C75.929 105.854 75.4682 105.709 75.0155 105.554L70.3292 111.46L65.5696 108.701L68.3168 101.668C67.9532 101.352 67.6058 101.019 67.2744 100.695C66.9352 100.354 66.6117 100.005 66.2968 99.6321L59.291 102.399L56.5438 97.6203L62.4264 92.9153C62.2731 92.4612 62.1275 91.9988 62.0062 91.5365C61.885 91.09 61.7798 90.6197 61.691 90.1412L54.249 89.0215V88.1618H54.2493ZM56.2292 86.2556V87.3018L63.4046 88.3891L63.5177 89.1112C63.6147 89.7356 63.7521 90.3847 63.9217 91.0256C64.0913 91.6665 64.2935 92.2912 64.5196 92.8912L64.7865 93.5724L59.1141 98.1156L60.1564 99.9244L66.9114 97.2553L67.372 97.8233C67.776 98.3265 68.2122 98.813 68.6813 99.2836C69.1497 99.7541 69.6346 100.2 70.1276 100.589L70.6931 101.051L68.0347 107.834L69.8364 108.88L74.3613 103.186L75.0401 103.445C75.6302 103.681 76.2603 103.883 76.8987 104.054C77.5368 104.224 78.1752 104.362 78.8057 104.459L79.5249 104.573L80.6074 111.768H82.6922L83.7671 104.573L84.4857 104.459C85.1159 104.362 85.7546 104.224 86.393 104.054C87.0393 103.883 87.6618 103.68 88.2595 103.445L88.9383 103.186L93.455 108.88L95.2567 107.834L92.5986 101.051L93.1644 100.589C93.6656 100.184 94.1502 99.7459 94.6189 99.2753C95.0956 98.8047 95.5318 98.3177 95.9282 97.823L96.3803 97.255L103.136 99.9241L104.179 98.1065L98.5061 93.5718L98.7724 92.8906C98.9985 92.2906 99.201 91.6659 99.3703 91.025C99.5481 90.3762 99.6855 89.735 99.7743 89.1106L99.8877 88.3803L107.063 87.3012V85.2085L99.8877 84.1297L99.7743 83.4077C99.6855 82.775 99.5484 82.1341 99.3703 81.4933C99.201 80.8441 98.9985 80.2197 98.7724 79.6194L98.5061 78.938L104.179 74.4033L103.136 72.5944L96.3803 75.2635L95.9282 74.6877C95.5318 74.2006 95.0956 73.7138 94.6189 73.2353C94.1584 72.773 93.6656 72.3265 93.1644 71.9209L92.5986 71.4668L95.2567 64.6771L93.455 63.6303L88.9383 69.3332L88.2595 69.0656C87.6618 68.8385 87.0393 68.6277 86.4012 68.4571C85.7546 68.2871 85.1159 68.1488 84.4857 68.0515L83.7671 67.938L82.6922 60.7424H80.6074L79.5249 67.938L78.8057 68.0515C78.1755 68.1488 77.5368 68.2871 76.8987 68.4571C76.2521 68.6356 75.6302 68.8385 75.0401 69.0656L74.3613 69.3332L69.8443 63.6303L68.0347 64.6771L70.6931 71.4668L70.1276 71.9209C69.6346 72.3185 69.1497 72.7568 68.6813 73.2353C68.2122 73.6974 67.7763 74.1924 67.372 74.6956L66.9114 75.2635L60.1564 72.5944L59.1141 74.4033L64.7865 78.938L64.5196 79.6194C64.2935 80.2197 64.0916 80.8441 63.9217 81.4853C63.7521 82.1341 63.6147 82.775 63.5177 83.4077L63.4046 84.1297L56.2292 85.2085V86.2556ZM117.01 87.2533C116.46 87.2694 115.976 87.4965 115.62 87.8536C115.257 88.2186 115.03 88.7215 115.022 89.273V89.2974V89.3218V108.482C115.022 109.593 114.57 110.608 113.843 111.338C113.116 112.06 112.105 112.514 110.999 112.514H109.6C109.051 112.514 108.607 112.068 108.607 111.524C108.607 110.973 109.051 110.526 109.6 110.526H110.999C111.556 110.526 112.065 110.291 112.437 109.926C112.808 109.553 113.034 109.042 113.034 108.482V89.3218V89.2974V89.273V89.2488C113.051 88.1533 113.503 87.1638 114.214 86.4418L114.416 86.2553L114.214 86.0686C113.503 85.3547 113.05 84.3568 113.034 83.2697V83.2456V83.2133V83.1888V64.0362C113.034 63.4765 112.808 62.9574 112.437 62.5924C112.065 62.2191 111.556 61.9918 110.999 61.9918H109.6C109.051 61.9918 108.607 61.5456 108.607 60.9941C108.607 60.4424 109.051 59.9962 109.6 59.9962H110.999C112.105 59.9962 113.116 60.4506 113.843 61.1803C114.57 61.9103 115.022 62.9247 115.022 64.0359V83.1885V83.213V83.2453C115.03 83.7968 115.257 84.2918 115.62 84.6568C115.976 85.0138 116.469 85.2491 117.01 85.2571H117.034H117.058H118.456C119.006 85.2571 119.45 85.7115 119.45 86.255C119.45 86.8065 119.006 87.253 118.456 87.253H117.058H117.034H117.01V87.2533ZM49.2234 86.2556L49.4253 86.4421C50.1445 87.1641 50.589 88.1535 50.6051 89.2491V89.2733V89.2977V89.3221V108.483C50.6051 109.042 50.8392 109.554 51.203 109.926C51.5748 110.291 52.0837 110.526 52.6412 110.526H54.0393C54.5886 110.526 55.033 110.973 55.033 111.524C55.033 112.068 54.5886 112.514 54.0393 112.514H52.6412C51.5344 112.514 50.5242 112.06 49.7971 111.338C49.0699 110.608 48.6173 109.594 48.6173 108.483V89.3221V89.2977V89.2733C48.6173 88.7218 48.3832 88.2188 48.0193 87.8539C47.664 87.4968 47.1791 87.2697 46.6377 87.2535H46.6134H46.5891H45.1831C44.6335 87.2535 44.1891 86.8071 44.1891 86.2556C44.1891 85.7121 44.6335 85.2577 45.1831 85.2577H46.5891H46.6134H46.6377C47.1791 85.2497 47.6637 85.0144 48.0193 84.6574L48.068 84.6165C48.3993 84.2597 48.6173 83.7733 48.6173 83.2459V83.2136V83.1891V64.0365C48.6173 62.9253 49.0699 61.9109 49.7971 61.1809C50.5242 60.4512 51.5344 59.9968 52.6412 59.9968H54.0393C54.5886 59.9968 55.033 60.443 55.033 60.9947C55.033 61.5462 54.5886 61.9924 54.0393 61.9924H52.6412C52.0837 61.9924 51.5745 62.2197 51.203 62.593C50.8395 62.958 50.6051 63.4771 50.6051 64.0368V83.1894V83.2138V83.2462V83.2703C50.5969 84.325 50.1686 85.29 49.4818 86.0041L49.4253 86.0691L49.2234 86.2556ZM142.383 18.3979H12.0536V26.7859H135.676C136.217 26.7859 136.669 27.2324 136.669 27.7838V40.4871H142.383V18.3979ZM21.0311 126.516C20.4817 126.516 20.0373 126.069 20.0373 125.518C20.0373 124.966 20.4817 124.52 21.0311 124.52H93.6012C94.1508 124.52 94.5955 124.966 94.5955 125.518C94.5955 126.069 94.1508 126.516 93.6012 126.516H21.0311ZM59.7117 130.896C59.1703 130.896 58.7259 130.442 58.7259 129.898C58.7259 129.346 59.1703 128.901 59.7117 128.901H116.299C116.848 128.901 117.293 129.346 117.293 129.898C117.293 130.442 116.848 130.896 116.299 130.896H59.7117ZM122.092 130.896C121.543 130.896 121.098 130.442 121.098 129.898C121.098 129.346 121.543 128.901 122.092 128.901H129.163C129.712 128.901 130.157 129.346 130.157 129.898C130.157 130.442 129.712 130.896 129.163 130.896H122.092ZM8.61152 130.799C8.0622 130.799 7.61777 130.352 7.61777 129.801C7.61777 129.25 8.0622 128.803 8.61152 128.803H35.4223C35.9716 128.803 36.416 129.25 36.416 129.801C36.416 130.352 35.9716 130.799 35.4223 130.799H8.61152ZM9.07997 43.8618H28.7962H134.682V41.5094V41.4847V28.7815H11.0355H9.07997V43.8618Z" fill="#152EE0"/>
</svg>
