<svg width="152" height="152" viewBox="0 0 152 152" fill="none" xmlns="http://www.w3.org/2000/svg">
<path fill-rule="evenodd" clip-rule="evenodd" d="M12.6926 105.317H138.671V34.5012C138.671 32.1733 136.771 30.2715 134.447 30.2715H16.9136C14.592 30.2715 12.6926 32.173 12.6926 34.5012V105.317V105.317Z" stroke="#152EE0" stroke-width="3" stroke-miterlimit="2.6131" stroke-linecap="round" stroke-linejoin="round"/>
<path fill-rule="evenodd" clip-rule="evenodd" d="M78.6975 42.0625H122.332C122.894 42.0625 123.354 42.5233 123.354 43.0871V63.6711C123.354 64.2349 122.894 64.6957 122.332 64.6957H78.6975C78.1318 64.6957 77.6723 64.2349 77.6723 63.6711V43.0871C77.6726 42.5236 78.1318 42.0625 78.6975 42.0625Z" stroke="#152EE0" stroke-width="3" stroke-miterlimit="2.6131" stroke-linecap="round" stroke-linejoin="round"/>
<path d="M4.13388 105.354H147.23V116.396" stroke="#152EE0" stroke-width="3" stroke-miterlimit="2.6131" stroke-linecap="round" stroke-linejoin="round"/>
<path d="M147.23 116.396C147.23 119.006 145.101 121.134 142.508 121.134" stroke="#152EE0" stroke-width="3" stroke-miterlimit="2.6131" stroke-linecap="round" stroke-linejoin="round"/>
<path d="M142.508 121.135H7.91607" stroke="#152EE0" stroke-width="3" stroke-miterlimit="2.6131" stroke-linecap="round" stroke-linejoin="round"/>
<path d="M7.91607 121.135C5.83482 121.135 4.13388 119.429 4.13388 117.342" stroke="#152EE0" stroke-width="3" stroke-miterlimit="2.6131" stroke-linecap="round" stroke-linejoin="round"/>
<path d="M4.13388 117.341V105.354" stroke="#152EE0" stroke-width="3" stroke-miterlimit="2.6131" stroke-linecap="round" stroke-linejoin="round"/>
<path d="M11.081 113.243H57.455" stroke="#152EE0" stroke-width="3" stroke-miterlimit="2.6131" stroke-linecap="round" stroke-linejoin="round"/>
<path fill-rule="evenodd" clip-rule="evenodd" d="M124.091 114.247C124.643 114.247 125.089 113.793 125.089 113.243C125.089 112.686 124.643 112.242 124.091 112.242C123.538 112.242 123.09 112.686 123.09 113.243C123.09 113.793 123.539 114.247 124.091 114.247Z" stroke="#152EE0" stroke-width="3" stroke-miterlimit="2.6131" stroke-linecap="round" stroke-linejoin="round"/>
<path fill-rule="evenodd" clip-rule="evenodd" d="M131.587 114.247C132.139 114.247 132.588 113.793 132.588 113.243C132.588 112.686 132.139 112.242 131.587 112.242C131.031 112.242 130.589 112.686 130.589 113.243C130.589 113.793 131.031 114.247 131.587 114.247Z" stroke="#152EE0" stroke-width="3" stroke-miterlimit="2.6131" stroke-linecap="round" stroke-linejoin="round"/>
<path fill-rule="evenodd" clip-rule="evenodd" d="M138.459 114.247C139.011 114.247 139.46 113.793 139.46 113.243C139.46 112.686 139.011 112.242 138.459 112.242C137.91 112.242 137.46 112.686 137.46 113.243C137.46 113.793 137.91 114.247 138.459 114.247Z" stroke="#152EE0" stroke-width="3" stroke-miterlimit="2.6131" stroke-linecap="round" stroke-linejoin="round"/>
<path d="M76.9111 73.4717H123.354" stroke="#152EE0" stroke-width="3" stroke-miterlimit="2.6131" stroke-linecap="round" stroke-linejoin="round"/>
<path d="M123.875 81.3667H59.8244" stroke="#152EE0" stroke-width="3" stroke-miterlimit="2.6131" stroke-linecap="round" stroke-linejoin="round"/>
<path d="M53.2683 81.3667H25.3388" stroke="#152EE0" stroke-width="3" stroke-miterlimit="2.6131" stroke-linecap="round" stroke-linejoin="round"/>
<path d="M25.3388 89.2617H64.6283" stroke="#152EE0" stroke-width="3" stroke-miterlimit="2.6131" stroke-linecap="round" stroke-linejoin="round"/>
<path d="M71.0031 89.2617H123.875" stroke="#152EE0" stroke-width="3" stroke-miterlimit="2.6131" stroke-linecap="round" stroke-linejoin="round"/>
<path d="M25.3388 97.1567H123.875" stroke="#152EE0" stroke-width="3" stroke-miterlimit="2.6131" stroke-linecap="round" stroke-linejoin="round"/>
<path d="M35.6844 46.5293L26.0763 56.5152L35.8831 66.6044" stroke="#152EE0" stroke-width="3" stroke-miterlimit="2.6131" stroke-linecap="round" stroke-linejoin="round"/>
<path d="M55.2501 46.5293L64.8582 56.5152L55.0513 66.6044" stroke="#152EE0" stroke-width="3" stroke-miterlimit="2.6131" stroke-linecap="round" stroke-linejoin="round"/>
<path d="M51.2587 42.0625L40.598 71.0677" stroke="#152EE0" stroke-width="3" stroke-miterlimit="2.6131" stroke-linecap="round" stroke-linejoin="round"/>
</svg>
