<?xml version="1.0" encoding="UTF-8" standalone="no"?>
<svg
   xmlns:dc="http://purl.org/dc/elements/1.1/"
   xmlns:cc="http://creativecommons.org/ns#"
   xmlns:rdf="http://www.w3.org/1999/02/22-rdf-syntax-ns#"
   xmlns:svg="http://www.w3.org/2000/svg"
   xmlns="http://www.w3.org/2000/svg"
   xmlns:sodipodi="http://sodipodi.sourceforge.net/DTD/sodipodi-0.dtd"
   xmlns:inkscape="http://www.inkscape.org/namespaces/inkscape"
   height="60px"
   version="1.1"
   viewBox="0 0 48 60"
   width="48px"
   id="svg11"
   sodipodi:docname="iconfinder_art-tools_1291734.svg"
   inkscape:version="1.0.2 (1.0.2+r75+1)">
  <metadata
     id="metadata15">
    <rdf:RDF>
      <cc:Work
         rdf:about="">
        <dc:format>image/svg+xml</dc:format>
        <dc:type
           rdf:resource="http://purl.org/dc/dcmitype/StillImage" />
        <dc:title></dc:title>
      </cc:Work>
    </rdf:RDF>
  </metadata>
  <sodipodi:namedview
     pagecolor="#ffffff"
     bordercolor="#666666"
     borderopacity="1"
     objecttolerance="10"
     gridtolerance="10"
     guidetolerance="10"
     inkscape:pageopacity="0"
     inkscape:pageshadow="2"
     inkscape:window-width="1294"
     inkscape:window-height="704"
     id="namedview13"
     showgrid="false"
     inkscape:zoom="9.7166667"
     inkscape:cx="24.718753"
     inkscape:cy="30.160627"
     inkscape:window-x="72"
     inkscape:window-y="27"
     inkscape:window-maximized="1"
     inkscape:current-layer="svg11" />
  <desc
     id="desc4" />
  <defs
     id="defs6" />
  <g
     fill="none"
     fill-rule="evenodd"
     id="People"
     stroke="none"
     stroke-width="1"
     style="fill:#152ee0;fill-opacity:1">
    <g
       fill="#000000"
       id="Icon-22"
       transform="translate(-6.000000, 0.000000)"
       style="fill:#152ee0;fill-opacity:1">
      <path
         d="M45,48 C44.448,48 44,48.448 44,49 L44,51 C44,51.552 44.448,52 45,52 C45.552,52 46,51.552 46,51 L46,49 C46,48.448 45.552,48 45,48 L45,48 Z M46,37 C46,36.448 45.552,36 45,36 C44.448,36 44,36.448 44,37 L44,45 C44,45.552 44.448,46 45,46 C45.552,46 46,45.552 46,45 L46,37 Z M52,26 L8,26 C6.897,26 6,26.897 6,28 L6,32 C6,33.103 6.897,34 8,34 L8,55 C8,57.757 10.243,60 13,60 L47,60 C49.757,60 52,57.757 52,55 L52,37 C52,36.448 51.552,36 51,36 C50.448,36 50,36.448 50,37 L50,55 C50,56.654 48.654,58 47,58 L13,58 C11.346,58 10,56.654 10,55 L10,33 C10,32.448 9.552,32 9,32 L8,32 L8,28 L52,28 L52,32 L13,32 C12.448,32 12,32.448 12,33 C12,33.552 12.448,34 13,34 L52,34 C53.103,34 54,33.103 54,32 L54,28 C54,26.897 53.103,26 52,26 L52,26 Z M28,16.466 L28,23 C28,23.552 28.448,24 29,24 C29.552,24 30,23.552 30,23 L30,16 C30,15.686 29.85,15.388 29.599,15.199 C28.583,14.435 28,13.269 28,12 C28,9.484 30.421,5.216 32,2.783 C33.579,5.216 36,9.484 36,12 C36,13.901 34.65,15.55 32.791,15.922 C32.249,16.03 31.897,16.557 32.006,17.098 C32.114,17.64 32.641,17.988 33.182,17.883 C35.974,17.326 38,14.852 38,12 C38,7.729 33.025,0.715 32.814,0.419 C32.438,-0.107 31.562,-0.107 31.186,0.419 C30.975,0.715 26,7.729 26,12 C26,13.714 26.709,15.304 28,16.466 L28,16.466 Z M9,24 L11,24 C11.552,24 12,23.552 12,23 C12,22.448 11.552,22 11,22 L10,22 L10,20 L15,20 C15.552,20 16,19.552 16,19 C16,18.448 15.552,18 15,18 L10,18 L10,16 L11,16 C11.552,16 12,15.552 12,15 C12,14.448 11.552,14 11,14 L10,14 L10,12 L11,12 C11.552,12 12,11.552 12,11 C12,10.448 11.552,10 11,10 L10,10 L10,8 L15,8 C15.552,8 16,7.552 16,7 C16,6.448 15.552,6 15,6 L10,6 L10,2 L22,2 L22,23 C22,23.552 22.448,24 23,24 C23.552,24 24,23.552 24,23 L24,1 C24,0.448 23.552,0 23,0 L9,0 C8.448,0 8,0.448 8,1 L8,23 C8,23.552 8.448,24 9,24 L9,24 Z M45,13 L45,23 C45,23.552 45.448,24 46,24 C46.552,24 47,23.552 47,23 L47,13 C47,12.448 46.552,12 46,12 C45.448,12 45,12.448 45,13 L45,13 Z M51,12 C50.448,12 50,12.448 50,13 L50,23 C50,23.552 50.448,24 51,24 C51.552,24 52,23.552 52,23 L52,13 C52,12.448 51.552,12 51,12 L51,12 Z M41,24 C41.552,24 42,23.552 42,23 L42,9.287 L46,2.887 L49.196,8 L45,8 C44.448,8 44,8.448 44,9 C44,9.552 44.448,10 45,10 L51,10 C51.364,10 51.698,9.803 51.875,9.485 C52.051,9.167 52.041,8.778 51.848,8.47 L46.848,0.47 C46.482,-0.115 45.518,-0.115 45.152,0.47 L40.152,8.47 C40.053,8.629 40,8.812 40,9 L40,23 C40,23.552 40.448,24 41,24 L41,24 Z M36,20 L36,23 C36,23.552 35.552,24 35,24 C34.448,24 34,23.552 34,23 L34,20 C34,19.448 34.448,19 35,19 C35.552,19 36,19.448 36,20 L36,20 Z"
         id="art-tools"
         style="fill:#152ee0;fill-opacity:1" />
    </g>
  </g>
</svg>
