<svg width="108" height="108" viewBox="0 0 108 108" fill="none" xmlns="http://www.w3.org/2000/svg">
<path d="M5.0625 67.5C4.131 67.5 3.375 66.744 3.375 65.8125V11.8125C3.375 9.02137 5.64637 6.75 8.4375 6.75H99.5625C102.354 6.75 104.625 9.02137 104.625 11.8125V16.875C104.625 17.8065 103.869 18.5625 102.938 18.5625C102.006 18.5625 101.25 17.8065 101.25 16.875V11.8125C101.25 10.8844 100.491 10.125 99.5625 10.125H8.4375C7.50938 10.125 6.75 10.8844 6.75 11.8125V65.8125C6.75 66.744 5.994 67.5 5.0625 67.5Z" fill="#152EE0"/>
<path d="M54 104.625H35.4375C34.506 104.625 33.75 103.869 33.75 102.938C33.75 102.006 34.506 101.25 35.4375 101.25H38.8125C41.6036 101.25 43.875 98.9786 43.875 96.1875V87.75C43.875 86.8185 44.631 86.0625 45.5625 86.0625C46.494 86.0625 47.25 86.8185 47.25 87.75V96.1875C47.25 98.0876 46.6189 99.8392 45.5591 101.25H54C54.9315 101.25 55.6875 102.006 55.6875 102.938C55.6875 103.869 54.9315 104.625 54 104.625Z" fill="#152EE0"/>
<path d="M52.3125 87.75H8.4375C5.64637 87.75 3.375 85.4786 3.375 82.6875V72.5625C3.375 71.631 4.131 70.875 5.0625 70.875H52.3125C53.244 70.875 54 71.631 54 72.5625C54 73.494 53.244 74.25 52.3125 74.25H6.75V82.6875C6.75 83.6156 7.50938 84.375 8.4375 84.375H52.3125C53.244 84.375 54 85.131 54 86.0625C54 86.994 53.244 87.75 52.3125 87.75Z" fill="#152EE0"/>
<path d="M72.5625 30.375H89.4375C90.369 30.375 91.125 29.619 91.125 28.6875C91.125 27.756 90.369 27 89.4375 27H72.5625C71.631 27 70.875 27.756 70.875 28.6875C70.875 29.619 71.631 30.375 72.5625 30.375Z" fill="#152EE0"/>
<path d="M79.3125 97.875H82.6875C83.619 97.875 84.375 97.119 84.375 96.1875C84.375 95.256 83.619 94.5 82.6875 94.5H79.3125C78.381 94.5 77.625 95.256 77.625 96.1875C77.625 97.119 78.381 97.875 79.3125 97.875Z" fill="#152EE0"/>
<path d="M96.1875 104.625H65.8125C61.1584 104.625 57.375 100.842 57.375 96.1875V28.6875C57.375 24.0334 61.1584 20.25 65.8125 20.25H96.1875C100.842 20.25 104.625 24.0334 104.625 28.6875V96.1875C104.625 100.842 100.842 104.625 96.1875 104.625ZM65.8125 23.625C63.0214 23.625 60.75 25.8964 60.75 28.6875V96.1875C60.75 98.9786 63.0214 101.25 65.8125 101.25H96.1875C98.9786 101.25 101.25 98.9786 101.25 96.1875V28.6875C101.25 25.8964 98.9786 23.625 96.1875 23.625H65.8125Z" fill="#152EE0"/>
</svg>
