<svg width="55" height="55" viewBox="0 0 55 55" fill="none" xmlns="http://www.w3.org/2000/svg">
<path fill-rule="evenodd" clip-rule="evenodd" d="M27.5047 0C12.3229 0 0.0132446 12.3097 0.0132446 27.4948C0.0132446 39.6413 7.88856 49.9469 18.8164 53.5838C20.1914 53.8347 20.6245 53.02 20.6245 52.2912C20.6245 51.6381 20.6382 49.8128 20.6245 47.5183C12.9778 49.1803 11.3931 43.8969 11.3931 43.8969C10.1436 40.7206 8.34231 39.875 8.34231 39.875C5.84668 38.17 8.52965 38.2027 8.52965 38.2027C11.2882 38.3969 12.7423 41.0369 12.7423 41.0369C15.195 45.2358 19.1756 44.0223 20.7414 43.3211C20.9923 41.5439 21.7039 40.3322 22.4893 39.6447C16.3843 38.9503 9.96653 36.5922 9.96653 26.0562C9.96653 23.0536 11.0373 20.6009 12.7956 18.6794C12.512 17.985 11.5667 15.1886 13.0654 11.4022C13.0654 11.4022 15.3737 10.6631 20.6245 14.2227C22.8176 13.6125 25.1706 13.3083 27.5081 13.298C29.8439 13.3083 32.1951 13.6125 34.3917 14.2227C39.6425 10.6648 41.9473 11.4022 41.9473 11.4022C43.4461 15.1886 42.5025 17.985 42.2206 18.6794C43.9789 20.6009 45.0462 23.0536 45.0462 26.0562C45.0462 36.6197 38.6181 38.9434 32.4925 39.6223C33.479 40.4731 34.3745 42.1231 34.3745 44.6875C34.3745 48.125 34.3745 51.3941 34.3745 52.2981C34.3745 53.0337 34.8179 53.8467 36.2136 53.5803C47.1311 49.9383 54.9995 39.6378 54.9995 27.4948C54.9995 12.3097 42.6898 0 27.5047 0Z" fill="#CDCDCD"/>
</svg>
