<svg width="46" height="46" viewBox="0 0 46 46" fill="none" xmlns="http://www.w3.org/2000/svg">
<path d="M13.271 7.95062H14.9149V9.75109H16.7129V4.37402H14.9149V6.15096H13.271V4.37402H11.4738V9.75109H13.271V7.95062Z" fill="#152EE0"/>
<path d="M19.0757 9.75109H20.8729V6.15827H22.4543V4.37402H17.4943V6.15827H19.0757V9.75109Z" fill="#152EE0"/>
<path d="M25.0005 7.0873L26.2387 8.99812H26.2687L27.5044 7.0873V9.75109H29.2952V4.37402H27.4208L26.2687 6.26618L25.1165 4.37402H23.243V9.75109H25.0005V7.0873Z" fill="#152EE0"/>
<path d="M34.514 7.97496H31.9865V4.37402H30.1893V9.75109H34.514V7.97496Z" fill="#152EE0"/>
<path d="M8.88388 12.1104L11.4544 40.9406L22.9931 44.1431L34.5408 40.9422L37.1161 12.1104H8.88388ZM31.5394 21.5387H22.9996H18.0079L18.3309 25.1599H22.9996H31.2181L30.2485 36.0187L22.9996 38.0269L22.9947 38.0285L15.7507 36.0187L15.2452 30.339H18.7942L19.0571 33.2851L22.9955 34.3497L23.0004 34.3481L26.9429 33.2835L27.3535 28.6975H23.0004H15.0983L14.1433 18.0043H22.9996H31.8551L31.5394 21.5387Z" fill="#152EE0"/>
</svg>
