<svg width="29" height="29" viewBox="0 0 29 29" fill="none" xmlns="http://www.w3.org/2000/svg">
<path d="M14.5 29C22.4984 29 29 22.4984 29 14.5C29 6.50161 22.4984 0 14.5 0C6.50161 0 0 6.50161 0 14.5C0 22.4984 6.50161 29 14.5 29ZM3.27419 20.2766L9.16774 20.2298C9.82258 22.5919 10.9218 24.8839 12.4185 26.9419C8.41935 26.2871 5.075 23.7379 3.27419 20.2766ZM10.6645 10.5242H18.0081C18.546 13.0968 18.546 15.7395 18.0548 18.3121L10.6645 18.3589C10.1266 15.7629 10.1266 13.0968 10.6645 10.5242ZM14.3363 26.404C12.8629 24.5097 11.7871 22.4282 11.1323 20.2298L17.5637 20.1831C16.8855 22.3815 15.8097 24.4863 14.3363 26.404ZM16.2073 27.0121C17.7508 24.9073 18.85 22.5919 19.5048 20.1597L25.796 20.1129C23.9718 23.7847 20.4169 26.4274 16.2073 27.0121ZM27.129 14.5C27.129 15.8097 26.9185 17.0726 26.5677 18.2419L19.9492 18.2887C20.4169 15.7161 20.3935 13.0968 19.9024 10.5242H26.4742C26.8952 11.7637 27.129 13.1202 27.129 14.5ZM25.679 8.65323H19.4581C18.7798 6.31452 17.704 4.04597 16.2073 1.9879C20.3468 2.54919 23.8315 5.09839 25.679 8.65323ZM17.5169 8.65323H11.1556C11.8339 6.50161 12.8863 4.46694 14.3363 2.59597C15.7863 4.46694 16.8387 6.50161 17.5169 8.65323ZM12.4185 2.05806C10.9452 4.09274 9.86936 6.31452 9.21452 8.65323H3.32097C5.12177 5.21532 8.44274 2.7129 12.4185 2.05806ZM8.77016 10.5242C8.27903 13.1202 8.27903 15.7629 8.74677 18.3589L2.50242 18.4056C2.08145 17.1661 1.87097 15.8565 1.87097 14.5C1.87097 13.1202 2.10484 11.7637 2.52581 10.5242H8.77016Z" fill="#CDCDCD"/>
</svg>
