<svg width="35" height="35" viewBox="0 0 35 35" fill="none" xmlns="http://www.w3.org/2000/svg">
<path d="M1.77747 1.77734V33.2225H33.2225V1.77734H1.77747ZM18.8898 26.3018C18.8898 29.3621 17.0929 30.7589 14.4747 30.7589C12.1094 30.7589 10.7407 29.5376 10.0388 28.0567L12.4462 26.6037C12.9095 27.4249 13.3307 28.1197 14.3484 28.1197C15.317 28.1197 15.9348 27.7407 15.9348 26.2598V16.2155H18.8898V26.3018ZM25.8807 30.7589C23.1363 30.7589 21.3605 29.4533 20.4971 27.7407L22.9047 26.3508C23.5364 27.3827 24.3646 28.1477 25.8175 28.1477C27.0388 28.1477 27.8248 27.5371 27.8248 26.6879C27.8248 25.6771 27.0248 25.3193 25.6702 24.7226L24.9332 24.4068C22.7994 23.5013 21.3885 22.3571 21.3885 19.9497C21.3885 17.7317 23.0801 16.0471 25.7121 16.0471C27.5932 16.0471 28.9409 16.6999 29.9095 18.4125L27.6073 19.8865C27.1019 18.981 26.5545 18.6231 25.7052 18.6231C24.8418 18.6231 24.2943 19.1707 24.2943 19.8865C24.2943 20.7709 24.8418 21.129 26.1122 21.6833L26.8492 21.9992C29.362 23.0731 30.7728 24.1752 30.7728 26.6459C30.7729 29.2989 28.6812 30.7589 25.8807 30.7589Z" fill="#152EE0"/>
</svg>
