<svg width="36" height="36" viewBox="0 0 36 36" fill="none" xmlns="http://www.w3.org/2000/svg">
<path d="M24.9495 24.7561C26.253 24.6436 27.264 23.4961 27.198 22.1251C27.129 20.7541 26.0055 19.6531 24.636 19.6531H24.5445C23.13 19.6996 22.0275 20.8891 22.0725 22.3066C22.1175 23.0251 22.4115 23.6101 22.8135 24.0361C21.2415 27.0931 18.882 29.3401 15.3075 31.2286C12.903 32.4856 10.3635 32.9596 7.89151 32.6221C5.82451 32.3311 4.20751 31.4071 3.21751 29.9251C1.73551 27.6766 1.60051 25.2511 2.83501 22.8241C3.73651 21.0706 5.08351 19.7896 5.98351 19.1596C5.75851 18.5761 5.48851 17.5876 5.35351 16.8466C-1.30049 21.6121 -0.623993 28.1281 1.39801 31.2076C2.90401 33.4546 5.98351 34.8916 9.35401 34.8916C10.2525 34.8916 11.1975 34.8256 12.1185 34.6006C17.9625 33.4771 22.389 29.9716 24.9285 24.8026L24.9495 24.7561ZM32.9715 19.1371C29.49 15.0466 24.3645 12.7996 18.5205 12.7996H17.7555C17.376 11.9686 16.5 11.4511 15.51 11.4511H15.4425C14.028 11.4511 12.9255 12.6661 12.972 14.0806C13.017 15.4276 14.163 16.5526 15.534 16.5526H15.645C16.6575 16.5076 17.5335 15.8776 17.892 14.9791H18.7245C22.188 14.9791 25.467 15.9901 28.4565 17.9671C30.747 19.4731 32.3895 21.4501 33.3105 23.8111C34.1175 25.7431 34.074 27.6316 33.243 29.2066C31.962 31.6771 29.8035 32.9821 26.9505 32.9821C25.152 32.9821 23.4 32.4196 22.5 32.0161C21.9615 32.4631 21.0615 33.2056 20.409 33.6556C22.386 34.5526 24.387 35.0701 26.319 35.0701C30.702 35.0701 33.9585 32.5996 35.196 30.2161C36.543 27.5191 36.432 22.9801 32.9925 19.0921L32.9715 19.1371ZM9.73501 25.5631C9.77851 26.9116 10.9245 28.0351 12.297 28.0351H12.387C13.8255 27.9901 14.9265 26.8006 14.859 25.3831C14.859 24.0346 13.6905 22.9126 12.3195 22.9126H12.228C12.138 22.9126 12.0045 22.9126 11.8905 22.9561C10.026 19.8091 9.23851 16.4371 9.53251 12.7996C9.71101 10.0576 10.611 7.67414 12.228 5.69714C13.5765 4.01114 16.116 3.17864 17.847 3.13514C22.701 3.04364 24.7245 9.09164 24.8805 11.4961L27.1275 12.1696C26.61 4.79864 22.0275 0.931641 17.6445 0.931641C13.5315 0.931641 9.73501 3.92114 8.20501 8.30414C6.11551 14.1481 7.48651 19.7656 10.0485 24.2611C9.82501 24.5536 9.69001 25.0696 9.73501 25.5631Z" fill="#152EE0"/>
</svg>
