<svg width="54" height="54" viewBox="0 0 54 54" fill="none" xmlns="http://www.w3.org/2000/svg">
<path d="M44.5088 29.7206C42.8111 29.728 41.341 30.1374 40.1134 30.7437C39.6662 29.8416 39.2038 29.0536 39.128 28.4625C39.0373 27.7728 38.9385 27.3636 39.0447 26.5452C39.1509 25.7266 39.6282 24.567 39.6207 24.4838C39.6132 24.4005 39.5146 23.9836 38.537 23.976C37.5594 23.9685 36.7183 24.1654 36.6197 24.4231C36.521 24.6807 36.3318 25.2644 36.2181 25.8706C36.0437 26.7573 34.2627 29.9252 33.2547 31.5772C32.9213 30.9332 32.641 30.3646 32.5802 29.91C32.4893 29.2202 32.3908 28.8111 32.4969 27.9927C32.603 27.174 33.0804 26.0145 33.0728 25.9313C33.0652 25.8479 32.9667 25.431 31.9892 25.4234C31.0115 25.4159 30.1705 25.6129 30.0718 25.8706C29.9733 26.1282 29.8672 26.7345 29.6701 27.3183C29.4732 27.9015 27.101 33.1761 26.4796 34.548C26.1612 35.245 25.8886 35.8059 25.6914 36.1849C25.6613 36.2455 25.6385 36.2835 25.6233 36.3138C25.646 36.276 25.6613 36.2379 25.6613 36.2533C25.4945 36.579 25.3959 36.7609 25.3959 36.7609V36.7684C25.267 37.0109 25.1231 37.2306 25.0549 37.2306C25.0094 37.2306 24.911 36.5942 25.0777 35.7226C25.4338 33.8886 26.275 31.0393 26.2674 30.9406C26.2598 30.8876 26.4265 30.395 25.7141 30.1297C25.0246 29.8796 24.7744 30.2965 24.7139 30.2965C24.6533 30.2965 24.6078 30.4482 24.6078 30.4482C24.6078 30.4482 25.3732 27.2349 23.1375 27.2349C21.7431 27.2349 19.8031 28.7659 18.8483 30.1527C18.2496 30.4786 16.9536 31.1833 15.5895 31.9335C15.0666 32.2215 14.5285 32.517 14.0208 32.7975C13.9829 32.7594 13.9526 32.7216 13.9147 32.6837C11.2016 29.7889 6.19228 27.7427 6.40459 23.8548C6.48031 22.4376 6.97296 18.7168 16.0367 14.2C23.4636 10.5017 29.405 11.5173 30.4283 13.7756C31.8983 16.9965 27.2527 22.991 19.538 23.8548C16.5975 24.1807 15.0517 23.044 14.6651 22.6197C14.2634 22.1726 14.2027 22.1497 14.0512 22.2331C13.801 22.3695 13.9603 22.7636 14.0512 22.9985C14.2786 23.5971 15.2258 24.6582 16.8401 25.1887C18.2571 25.6509 21.7054 25.9087 25.8734 24.2944C30.5568 22.4907 34.2021 17.4661 33.1335 13.2603C32.0424 8.98613 24.9565 7.58403 18.2497 9.96361C14.2559 11.3808 9.93621 13.6089 6.82899 16.5113C3.13832 19.9672 2.54728 22.9757 2.78965 24.2339C3.65365 28.6974 9.80722 31.6076 12.2702 33.7598C12.1489 33.828 12.0352 33.8887 11.9293 33.9493C10.694 34.563 6.00296 37.0185 4.82825 39.6106C3.50219 42.5509 5.04794 44.6576 6.0635 44.9457C9.23126 45.8247 12.4748 44.2409 14.2179 41.6414C15.9608 39.0421 15.7487 35.6469 14.9454 34.1009C14.9377 34.0782 14.9227 34.0632 14.9152 34.0402C15.2334 33.8509 15.5592 33.6614 15.8852 33.472C16.5141 33.1006 17.128 32.7594 17.666 32.4641C17.3628 33.2827 17.1431 34.2674 17.0294 35.6924C16.893 37.3596 17.5827 39.5194 18.477 40.3683C18.8709 40.7396 19.3483 40.7473 19.644 40.7473C20.6898 40.7473 21.1596 39.8832 21.6825 38.8526C22.3267 37.5943 22.895 36.1317 22.895 36.1317C22.895 36.1317 22.1827 40.0879 24.1303 40.0879C24.8426 40.0879 25.5552 39.1709 25.8733 38.701V38.7085C25.8733 38.7085 25.8886 38.6783 25.9264 38.6178C26.0022 38.504 26.04 38.4358 26.04 38.4358V38.4129C26.328 37.9203 26.9571 36.7911 27.9042 34.9269C29.132 32.5168 30.3066 29.5081 30.3066 29.5081C30.3066 29.5081 30.4127 30.2435 30.7766 31.4635C30.9887 32.1835 31.4358 32.9716 31.792 33.7371C31.5041 34.1312 31.3297 34.3585 31.3297 34.3585C31.3297 34.3585 31.3297 34.366 31.3371 34.3736C31.1098 34.677 30.8522 35.0028 30.587 35.3212C29.6169 36.473 28.465 37.7918 28.3135 38.1706C28.1315 38.6178 28.177 38.951 28.5257 39.2088C28.7833 39.406 29.238 39.4361 29.7154 39.3984C30.587 39.3375 31.2008 39.1255 31.4963 38.9888C31.9661 38.8224 32.5119 38.5569 33.0272 38.1857C33.9745 37.4886 34.5506 36.4883 34.4974 35.1696C34.4671 34.4421 34.232 33.7144 33.9441 33.0326C34.0275 32.9112 34.1185 32.7822 34.2018 32.6536C35.7025 30.4632 36.862 28.0611 36.862 28.0611C36.862 28.0611 36.9681 28.796 37.3317 30.0162C37.5136 30.6301 37.8698 31.3046 38.1956 31.9638C36.786 33.1082 35.9146 34.4346 35.6114 35.3059C35.0505 36.9202 35.4901 37.6475 36.3162 37.8145C36.6875 37.8903 37.218 37.7158 37.6122 37.5491C38.1047 37.3823 38.6959 37.1171 39.249 36.7079C40.1964 36.0108 41.1134 35.033 41.0529 33.7068C41.03 33.1081 40.8633 32.5095 40.6435 31.9335C41.8332 31.4335 43.3795 31.1604 45.3498 31.3879C49.5709 31.8804 50.3969 34.5177 50.2377 35.6165C50.0788 36.723 49.1921 37.3294 48.8965 37.5112C48.6007 37.6931 48.5099 37.7614 48.5328 37.8978C48.5706 38.0948 48.7069 38.0873 48.957 38.0416C49.3058 37.9811 51.17 37.1473 51.2532 35.1087C51.3747 32.532 48.8967 29.6979 44.5088 29.7206ZM11.9747 40.6865C10.5804 42.2097 8.62513 42.7857 7.78401 42.3007C6.88215 41.778 7.23832 39.5346 8.95862 37.9127C10.0044 36.9277 11.3534 36.0183 12.2477 35.4575C12.4523 35.3363 12.7479 35.1544 13.1117 34.9346C13.1723 34.897 13.2026 34.8817 13.2026 34.8817C13.2707 34.836 13.3465 34.7982 13.4224 34.7527C14.0512 37.0565 13.4449 39.0874 11.9747 40.6865ZM22.1601 33.7598C21.6751 34.9495 20.6519 37.981 20.0307 37.8218C19.5002 37.6853 19.1742 35.374 19.9246 33.1006C20.3035 31.9562 21.1067 30.5921 21.5843 30.0617C22.3496 29.2052 23.1908 28.9324 23.3879 29.2735C23.6531 29.7206 22.4632 33.0172 22.1601 33.7598ZM30.572 37.7766C30.3675 37.8826 30.178 37.9507 30.0871 37.8977C30.0189 37.8598 30.1705 37.7157 30.1705 37.7157C30.1705 37.7157 31.2237 36.5866 31.6406 36.071C31.8831 35.768 32.1634 35.4118 32.4667 35.0178C32.4667 35.0555 32.474 35.0937 32.474 35.1389C32.4668 36.4957 31.1633 37.4128 30.572 37.7766ZM37.0593 36.2986C36.9077 36.1925 36.9303 35.8364 37.4381 34.7298C37.6353 34.2978 38.09 33.5704 38.878 32.8731C38.969 33.161 39.022 33.4338 39.022 33.6915C39.0143 35.3967 37.7943 36.0333 37.0593 36.2986Z" fill="#152EE0"/>
</svg>
